<svg xmlns="http://www.w3.org/2000/svg" viewBox="-303.5,-89,1000,1000" fill="#ffffff">
        <path d="M596.5,411c0,220.9139 -179.0861,400 -400,400c-220.9139,0 -400,-179.0861 -400,-400c0,-220.9139 179.0861,-400 400,-400c220.9139,0 400,179.0861 400,400zM296.5,611c110.45695,0 200,-89.54305 200,-200c0,-110.45695 -89.54305,-200 -200,-200c-17.26498,0 -34.019,2.18765 -50,6.30087c86.26136,22.20214 150,100.50716 150,193.69913c0,93.19198 -63.73864,171.49699 -150,193.69913c15.981,4.11322 32.73502,6.30087 50,6.30087zM196.5,111c-165.68542,0 -300,134.31458 -300,300c0,165.68542 134.31458,300 300,300c17.03561,0 33.73958,-1.41994 50,-4.14792c-141.88567,-23.80391 -250,-147.20227 -250,-295.85208c0,-148.64981 108.11434,-272.04817 250,-295.85208c-16.26042,-2.72798 -32.96439,-4.14792 -50,-4.14792zM196.5,511c55.22847,0 100,-44.77153 100,-100c0,-55.22847 -44.77153,-100 -100,-100c-55.22847,0 -100,44.77153 -100,100c0,55.22847 44.77153,100 100,100z" />
</svg>
